<svg xmlns="http://www.w3.org/2000/svg" xmlns:xlink="http://www.w3.org/1999/xlink" width="500" zoomAndPan="magnify" viewBox="0 0 375 374.999991" height="500" preserveAspectRatio="xMidYMid meet" version="1.2"><defs><clipPath id="0e8c2834e2"><path d="M 0.238281 17 L 152 17 L 152 236 L 0.238281 236 Z M 0.238281 17 "/></clipPath><clipPath id="2a1a530e23"><rect x="0" width="259" y="0" height="244"/></clipPath><clipPath id="9abaffafd4"><path d="M 52 224 L 300 224 L 300 291 L 52 291 Z M 52 224 "/></clipPath><clipPath id="7cbea7fb55"><path d="M 52.558594 240.648438 L 295.761719 224.367188 L 299.121094 274.503906 L 55.914062 290.785156 Z M 52.558594 240.648438 "/></clipPath><clipPath id="6f3acdd248"><path d="M 2 17 L 247 17 L 247 57 L 2 57 Z M 2 17 "/></clipPath><clipPath id="84acb674ed"><path d="M 0.558594 16.648438 L 243.761719 0.367188 L 247.121094 50.503906 L 3.914062 66.785156 Z M 0.558594 16.648438 "/></clipPath><clipPath id="0dc36597c8"><path d="M 3.914062 66.796875 L 247.121094 50.515625 L 243.765625 0.378906 L 0.558594 16.660156 Z M 3.914062 66.796875 "/></clipPath><clipPath id="28f25efb53"><path d="M 3.914062 66.796875 L 247.121094 50.515625 L 243.765625 0.378906 L 0.558594 16.660156 Z M 3.914062 66.796875 "/></clipPath><clipPath id="52da06d80c"><rect x="0" width="248" y="0" height="67"/></clipPath><clipPath id="685e143fa9"><rect x="0" width="77" y="0" height="18"/></clipPath></defs><g id="fe9c1a7e70"><rect x="0" width="375" y="0" height="374.999991" style="fill:#ffffff;fill-opacity:1;stroke:none;"/><rect x="0" width="375" y="0" height="374.999991" style="fill:#ffffff;fill-opacity:1;stroke:none;"/><g transform="matrix(1,0,0,1,36,48)"><g clip-path="url(#2a1a530e23)"><g clip-rule="nonzero" clip-path="url(#0e8c2834e2)"><g style="fill:#231f20;fill-opacity:1;"><g transform="translate(0.853913, 169.022516)"><path style="stroke:none" d="M 149.796875 24.203125 C 150.015625 24.648438 150.148438 25.117188 150.203125 25.609375 C 150.296875 26.296875 150 26.75 149.3125 26.96875 C 147.195312 27.738281 145.597656 27.175781 144.515625 25.28125 C 143.753906 23.925781 143.050781 22.523438 142.40625 21.078125 C 140.9375 17.609375 139.625 14.070312 138.46875 10.46875 C 137.3125 6.863281 136.238281 3.25 135.25 -0.375 C 134.382812 -3.570312 133.546875 -6.769531 132.734375 -9.96875 C 132.191406 -12.226562 131.628906 -14.503906 131.046875 -16.796875 C 130.773438 -17.921875 130.445312 -18.617188 130.0625 -18.890625 C 129.6875 -19.160156 128.929688 -19.273438 127.796875 -19.234375 C 124.109375 -19.003906 120.429688 -18.78125 116.765625 -18.5625 C 112.898438 -18.34375 109.050781 -18.160156 105.21875 -18.015625 C 104.25 -17.929688 103.53125 -17.648438 103.0625 -17.171875 C 102.601562 -16.691406 102.257812 -16.023438 102.03125 -15.171875 C 99.675781 -6.234375 96.898438 2.597656 93.703125 11.328125 C 91.535156 17.054688 89.148438 22.695312 86.546875 28.25 C 83.953125 33.800781 80.972656 39.144531 77.609375 44.28125 C 74.578125 48.882812 70.984375 52.992188 66.828125 56.609375 C 62.691406 60.253906 58.003906 62.691406 52.765625 63.921875 C 45.554688 65.585938 38.707031 64.703125 32.21875 61.265625 C 28.332031 59.097656 24.898438 56.390625 21.921875 53.140625 C 11.953125 42.316406 5 29.804688 1.0625 15.609375 C 0.351562 13.023438 0 10.378906 0 7.671875 L 0 7.484375 C 0 6.941406 0.0234375 6.378906 0.078125 5.796875 C 0.472656 -0.472656 3.425781 -5.160156 8.9375 -8.265625 C 11.050781 -9.398438 13.226562 -10.304688 15.46875 -10.984375 C 17.707031 -11.660156 19.992188 -12.15625 22.328125 -12.46875 C 29.316406 -13.550781 36.328125 -14.5 43.359375 -15.3125 C 54.554688 -16.570312 65.785156 -17.742188 77.046875 -18.828125 C 80.984375 -19.191406 84.910156 -19.507812 88.828125 -19.78125 C 90.722656 -19.875 92.59375 -20.007812 94.4375 -20.1875 C 95.71875 -20.238281 96.578125 -20.410156 97.015625 -20.703125 C 97.460938 -20.992188 97.820312 -21.742188 98.09375 -22.953125 C 98.78125 -25.484375 99.457031 -28.054688 100.125 -30.671875 C 104.644531 -50.566406 108.234375 -70.640625 110.890625 -90.890625 C 112.691406 -103.515625 114.109375 -116.160156 115.140625 -128.828125 C 115.410156 -132.816406 115.59375 -136.816406 115.6875 -140.828125 C 115.738281 -142.617188 115.828125 -144.398438 115.953125 -146.171875 C 115.953125 -146.441406 115.953125 -146.710938 115.953125 -146.984375 C 115.953125 -147.523438 115.976562 -148.039062 116.03125 -148.53125 C 116.070312 -149.570312 116.320312 -150.289062 116.78125 -150.6875 C 117.238281 -151.09375 117.984375 -151.296875 119.015625 -151.296875 C 120.046875 -151.347656 120.785156 -151.171875 121.234375 -150.765625 C 121.691406 -150.359375 121.921875 -149.613281 121.921875 -148.53125 C 121.921875 -144.914062 121.921875 -141.191406 121.921875 -137.359375 C 121.921875 -135.734375 121.921875 -134.070312 121.921875 -132.375 C 122.148438 -122.039062 122.726562 -111.4375 123.65625 -100.5625 C 124.664062 -88.382812 126.019531 -76.226562 127.71875 -64.09375 C 129.445312 -51.5 131.710938 -39.003906 134.515625 -26.609375 C 134.640625 -26.015625 134.773438 -25.445312 134.921875 -24.90625 C 135.046875 -24.5625 135.15625 -24.207031 135.25 -23.84375 C 135.570312 -22.8125 136.273438 -22.351562 137.359375 -22.46875 C 139.691406 -22.519531 142.050781 -22.570312 144.4375 -22.625 C 145.570312 -22.71875 146.628906 -22.492188 147.609375 -21.953125 C 147.984375 -21.679688 148.171875 -21.273438 148.171875 -20.734375 C 148.117188 -20.460938 147.992188 -20.257812 147.796875 -20.125 C 147.597656 -19.988281 147.398438 -19.921875 147.203125 -19.921875 C 146.046875 -19.878906 144.878906 -19.859375 143.703125 -19.859375 C 143.160156 -19.804688 142.617188 -19.78125 142.078125 -19.78125 C 141.753906 -19.78125 141.457031 -19.78125 141.1875 -19.78125 C 140.207031 -19.78125 139.257812 -19.753906 138.34375 -19.703125 C 136.945312 -19.578125 136.410156 -18.816406 136.734375 -17.421875 C 136.953125 -16.503906 137.195312 -15.582031 137.46875 -14.65625 C 138.28125 -10.988281 139.191406 -7.367188 140.203125 -3.796875 C 141.503906 0.972656 142.910156 5.710938 144.421875 10.421875 C 145.929688 15.140625 147.722656 19.734375 149.796875 24.203125 Z M 95.796875 -14.578125 C 96.117188 -15.660156 96.15625 -16.378906 95.90625 -16.734375 C 95.664062 -17.085938 95.003906 -17.207031 93.921875 -17.09375 C 89.390625 -16.769531 84.875 -16.363281 80.375 -15.875 C 79.507812 -15.820312 78.648438 -15.742188 77.796875 -15.640625 C 67.703125 -14.660156 57.625 -13.601562 47.5625 -12.46875 C 40.113281 -11.613281 32.648438 -10.644531 25.171875 -9.5625 C 21.742188 -9.113281 18.410156 -8.210938 15.171875 -6.859375 C 8.796875 -4.203125 5.65625 0.578125 5.75 7.484375 C 5.800781 9.828125 6.070312 12.15625 6.5625 14.46875 C 7.28125 17.394531 8.191406 20.238281 9.296875 23 C 10.398438 25.769531 11.628906 28.472656 12.984375 31.109375 C 16.554688 38.535156 21.132812 45.253906 26.71875 51.265625 C 29.644531 54.460938 32.96875 57.082031 36.6875 59.125 C 43.03125 62.4375 49.335938 62.382812 55.609375 58.96875 C 59.398438 56.976562 62.734375 54.382812 65.609375 51.1875 C 69.941406 46.363281 73.617188 41.109375 76.640625 35.421875 C 82.960938 23.472656 88.109375 11 92.078125 -2 C 93.378906 -6.175781 94.617188 -10.367188 95.796875 -14.578125 Z M 129.09375 -22.46875 C 129.132812 -22.519531 129.15625 -22.570312 129.15625 -22.625 C 129.207031 -22.675781 129.25 -22.726562 129.28125 -22.78125 C 129.320312 -22.84375 129.304688 -22.875 129.234375 -22.875 C 124.441406 -45.707031 120.925781 -68.757812 118.6875 -92.03125 C 118.582031 -92.800781 118.445312 -93.566406 118.28125 -94.328125 C 118.226562 -94.472656 118.128906 -94.65625 117.984375 -94.875 C 117.859375 -94.976562 117.742188 -95.140625 117.640625 -95.359375 C 117.367188 -93.410156 117.078125 -91.46875 116.765625 -89.53125 C 116.148438 -85.195312 115.5 -80.890625 114.8125 -76.609375 C 113.875 -70.390625 112.835938 -64.191406 111.703125 -58.015625 C 111.066406 -54.546875 110.390625 -51.085938 109.671875 -47.640625 C 109.128906 -44.984375 108.613281 -42.300781 108.125 -39.59375 C 107.582031 -36.9375 106.96875 -34.304688 106.28125 -31.703125 C 105.414062 -28.304688 104.675781 -24.875 104.0625 -21.40625 C 105.488281 -21.226562 107.847656 -21.179688 111.140625 -21.265625 C 114.441406 -21.359375 117.804688 -21.515625 121.234375 -21.734375 C 124.671875 -21.953125 127.289062 -22.195312 129.09375 -22.46875 Z M 129.09375 -22.46875 "/></g></g></g><g style="fill:#231f20;fill-opacity:1;"><g transform="translate(152.166998, 169.022516)"><path style="stroke:none" d="M 23.546875 -17.671875 C 24.015625 -18.628906 24.332031 -19.070312 24.5 -19 C 24.675781 -18.925781 24.71875 -18.539062 24.625 -17.84375 C 24.539062 -17.144531 24.390625 -16.351562 24.171875 -15.46875 C 23.847656 -14.113281 23.289062 -12.539062 22.5 -10.75 C 21.71875 -8.96875 20.847656 -7.351562 19.890625 -5.90625 C 18.460938 -3.882812 16.695312 -2.363281 14.59375 -1.34375 C 12.488281 -0.320312 10.582031 -0.0664062 8.875 -0.578125 C 7.164062 -1.097656 6.175781 -2.710938 5.90625 -5.421875 C 5.851562 -7.679688 6.050781 -10.164062 6.5 -12.875 C 6.644531 -14.007812 6.800781 -15.117188 6.96875 -16.203125 C 6.96875 -16.597656 6.867188 -16.898438 6.671875 -17.109375 C 6.484375 -17.316406 6.226562 -17.394531 5.90625 -17.34375 C 5.6875 -17.34375 5.441406 -17.34375 5.171875 -17.34375 C 3.816406 -17.125 2.4375 -17.148438 1.03125 -17.421875 C -0.632812 -17.910156 -1.601562 -18.738281 -1.875 -19.90625 C -2.144531 -21.070312 -2.125 -22.601562 -1.8125 -24.5 C -1.632812 -25.851562 -1.128906 -26.867188 -0.296875 -27.546875 C 0.535156 -28.222656 1.519531 -28.5 2.65625 -28.375 C 4.226562 -28.226562 4.988281 -27.625 4.9375 -26.5625 C 4.894531 -25.507812 4.601562 -24.378906 4.0625 -23.171875 C 3.570312 -22.160156 3.3125 -21.316406 3.28125 -20.640625 C 3.257812 -19.960938 3.835938 -19.722656 5.015625 -19.921875 C 5.285156 -19.992188 5.582031 -20.082031 5.90625 -20.1875 C 6.34375 -20.351562 6.84375 -20.503906 7.40625 -20.640625 C 7.976562 -20.773438 8.71875 -20.804688 9.625 -20.734375 C 10.707031 -20.691406 11.425781 -20.195312 11.78125 -19.25 C 12.144531 -18.300781 12.300781 -17.113281 12.25 -15.6875 C 12.195312 -14.257812 12.0625 -12.804688 11.84375 -11.328125 C 11.570312 -9.484375 11.4375 -7.898438 11.4375 -6.578125 C 11.4375 -5.265625 11.816406 -4.5 12.578125 -4.28125 C 13.585938 -4.007812 15.09375 -4.925781 17.09375 -7.03125 C 19.101562 -9.132812 21.253906 -12.679688 23.546875 -17.671875 Z M 23.546875 -17.671875 "/></g></g><g style="fill:#231f20;fill-opacity:1;"><g transform="translate(174.753245, 169.022516)"><path style="stroke:none" d="M 35.578125 -17.828125 C 36.117188 -18.140625 36.644531 -18.382812 37.15625 -18.5625 C 37.675781 -18.738281 38.015625 -18.726562 38.171875 -18.53125 C 38.335938 -18.332031 38.125 -17.890625 37.53125 -17.203125 C 35.6875 -15.078125 33.476562 -13.132812 30.90625 -11.375 C 28.332031 -9.625 25.691406 -8.144531 22.984375 -6.9375 C 20.867188 -5.976562 18.632812 -5.210938 16.28125 -4.640625 C 13.9375 -4.078125 11.613281 -3.957031 9.3125 -4.28125 C 7.019531 -4.601562 4.925781 -5.625 3.03125 -7.34375 C 0.144531 -10 -1.046875 -13.25 -0.546875 -17.09375 C -0.128906 -20.132812 1.050781 -22.71875 3 -24.84375 C 4.957031 -26.976562 7.425781 -28.425781 10.40625 -29.1875 C 12.894531 -29.726562 15.378906 -29.789062 17.859375 -29.375 C 18.992188 -29.195312 20.03125 -28.816406 20.96875 -28.234375 C 21.820312 -27.566406 22.289062 -26.789062 22.375 -25.90625 C 22.46875 -25.019531 22.128906 -24.171875 21.359375 -23.359375 C 19.785156 -21.953125 17.96875 -21.113281 15.90625 -20.84375 C 13.59375 -20.457031 11.269531 -20.210938 8.9375 -20.109375 C 7.800781 -20.109375 7.003906 -19.875 6.546875 -19.40625 C 6.097656 -18.9375 5.832031 -18.140625 5.75 -17.015625 C 5.382812 -13.941406 6.367188 -11.429688 8.703125 -9.484375 C 10.160156 -8.328125 11.925781 -7.832031 14 -8 C 16.082031 -8.175781 18.289062 -8.738281 20.625 -9.6875 C 22.96875 -10.632812 25.253906 -11.738281 27.484375 -13 C 29.722656 -14.269531 31.742188 -15.472656 33.546875 -16.609375 C 34.304688 -17.097656 34.984375 -17.503906 35.578125 -17.828125 Z M 9.921875 -24.390625 C 9.921875 -24.335938 9.882812 -24.3125 9.8125 -24.3125 C 9.71875 -24.21875 9.585938 -24.101562 9.421875 -23.96875 C 9.265625 -23.832031 9.117188 -23.695312 8.984375 -23.5625 C 8.847656 -23.425781 8.78125 -23.332031 8.78125 -23.28125 C 8.832031 -23.113281 9.273438 -23.070312 10.109375 -23.15625 C 10.941406 -23.238281 11.863281 -23.382812 12.875 -23.59375 C 13.882812 -23.800781 14.726562 -24.082031 15.40625 -24.4375 C 16.082031 -24.800781 16.285156 -25.226562 16.015625 -25.71875 C 15.890625 -25.863281 15.734375 -25.992188 15.546875 -26.109375 C 15.367188 -26.222656 15.171875 -26.300781 14.953125 -26.34375 C 13.960938 -26.34375 13.0625 -26.148438 12.25 -25.765625 C 11.4375 -25.390625 10.660156 -24.929688 9.921875 -24.390625 Z M 9.921875 -24.390625 "/></g></g><g style="fill:#231f20;fill-opacity:1;"><g transform="translate(210.477896, 169.022516)"><path style="stroke:none" d="M 26.640625 -17.203125 C 27.054688 -18.203125 27.507812 -18.703125 28 -18.703125 C 28.5 -18.703125 28.660156 -18.203125 28.484375 -17.203125 C 27.671875 -14.691406 26.695312 -12.285156 25.5625 -9.984375 C 24.4375 -7.679688 22.90625 -5.617188 20.96875 -3.796875 C 19.488281 -2.328125 17.726562 -1.378906 15.6875 -0.953125 C 12.90625 -0.566406 10.609375 -0.898438 8.796875 -1.953125 C 6.992188 -3.015625 5.5625 -4.535156 4.5 -6.515625 C 3.445312 -8.492188 2.660156 -10.65625 2.140625 -13 C 1.617188 -15.351562 1.285156 -17.640625 1.140625 -19.859375 C 0.742188 -24.035156 0.453125 -29.53125 0.265625 -36.34375 C 0.0859375 -43.164062 0.15625 -50.375 0.46875 -57.96875 C 0.789062 -65.570312 1.535156 -72.617188 2.703125 -79.109375 C 3.878906 -85.609375 5.597656 -90.644531 7.859375 -94.21875 C 9.160156 -95.957031 10.675781 -96.835938 12.40625 -96.859375 C 14.144531 -96.890625 15.691406 -96.09375 17.046875 -94.46875 C 17.960938 -93.21875 18.648438 -91.890625 19.109375 -90.484375 C 19.578125 -89.085938 19.882812 -87.660156 20.03125 -86.203125 C 20.53125 -81.210938 20.472656 -75.941406 19.859375 -70.390625 C 19.242188 -64.847656 18.269531 -58.925781 16.9375 -52.625 C 15.613281 -46.320312 14.023438 -40.769531 12.171875 -35.96875 C 10.328125 -31.175781 8.789062 -27.378906 7.5625 -24.578125 C 6.894531 -23.441406 6.648438 -21.734375 6.828125 -19.453125 C 7.046875 -16.960938 7.519531 -14.363281 8.25 -11.65625 C 8.976562 -8.957031 9.992188 -6.816406 11.296875 -5.234375 C 12.523438 -3.929688 13.898438 -3.523438 15.421875 -4.015625 C 16.953125 -4.515625 18.472656 -5.550781 19.984375 -7.125 C 21.492188 -8.695312 22.828125 -10.410156 23.984375 -12.265625 C 25.140625 -14.128906 26.023438 -15.773438 26.640625 -17.203125 Z M 6.96875 -54.953125 C 6.820312 -53.328125 6.679688 -50.867188 6.546875 -47.578125 C 6.410156 -44.296875 6.28125 -40.957031 6.15625 -37.5625 C 6.0625 -33.78125 5.953125 -30.828125 5.828125 -28.703125 C 7.035156 -31.410156 8.4375 -35.347656 10.03125 -40.515625 C 11.632812 -45.679688 13.09375 -51.769531 14.40625 -58.78125 C 15.726562 -65.789062 16.582031 -73.382812 16.96875 -81.5625 C 16.75 -86.332031 16.175781 -89.566406 15.25 -91.265625 C 14.332031 -92.960938 13.332031 -93.109375 12.25 -91.703125 C 11.164062 -90.296875 10.304688 -87.34375 9.671875 -82.84375 C 8.679688 -75.394531 7.914062 -67.929688 7.375 -60.453125 C 7.226562 -58.609375 7.09375 -56.773438 6.96875 -54.953125 Z M 6.96875 -54.953125 "/></g></g><g style="fill:#231f20;fill-opacity:1;"><g transform="translate(236.717807, 169.022516)"><path style="stroke:none" d="M 19.15625 -14.984375 C 18.394531 -13.410156 17.097656 -11.660156 15.265625 -9.734375 C 13.429688 -7.816406 11.347656 -6.597656 9.015625 -6.078125 C 6.691406 -5.566406 4.472656 -6.367188 2.359375 -8.484375 C 1.546875 -9.421875 0.945312 -10.5 0.5625 -11.71875 C 0.1875 -12.9375 0.046875 -14.132812 0.140625 -15.3125 C 0.140625 -15.632812 0.140625 -16.039062 0.140625 -16.53125 C 0.140625 -17.789062 0.195312 -19.242188 0.3125 -20.890625 C 0.425781 -22.535156 0.671875 -24.019531 1.046875 -25.34375 C 1.429688 -26.675781 2.03125 -27.476562 2.84375 -27.75 C 5.175781 -28.34375 6.441406 -27.53125 6.640625 -25.3125 C 6.640625 -24.601562 6.613281 -23.890625 6.5625 -23.171875 C 6.519531 -22.804688 6.5 -22.460938 6.5 -22.140625 C 6.445312 -21.109375 6.394531 -20.078125 6.34375 -19.046875 C 6.34375 -18.234375 6.304688 -17.421875 6.234375 -16.609375 C 6.179688 -13.035156 6.976562 -10.910156 8.625 -10.234375 C 10.28125 -9.554688 12.164062 -10.273438 14.28125 -12.390625 C 16.394531 -14.515625 17.773438 -16.273438 18.421875 -17.671875 C 19.078125 -19.078125 19.550781 -19.375 19.84375 -18.5625 C 20.144531 -17.75 19.914062 -16.554688 19.15625 -14.984375 Z M 6.15625 -35.359375 C 5.84375 -35.085938 5.457031 -34.910156 5 -34.828125 C 4.539062 -34.753906 4.140625 -34.796875 3.796875 -34.953125 C 3.523438 -35.171875 3.351562 -35.457031 3.28125 -35.8125 C 3.207031 -36.164062 3.171875 -36.59375 3.171875 -37.09375 C 3.171875 -37.1875 3.195312 -37.285156 3.25 -37.390625 C 3.300781 -37.828125 3.410156 -38.269531 3.578125 -38.71875 C 4.066406 -39.894531 5.085938 -40.429688 6.640625 -40.328125 C 7.179688 -40.253906 7.601562 -40.035156 7.90625 -39.671875 C 8.21875 -39.304688 8.289062 -38.875 8.125 -38.375 C 7.75 -37.175781 7.09375 -36.171875 6.15625 -35.359375 Z M 6.15625 -35.359375 "/></g></g></g></g><g clip-rule="nonzero" clip-path="url(#9abaffafd4)"><g clip-rule="nonzero" clip-path="url(#7cbea7fb55)"><g transform="matrix(1,0,0,1,52,224)"><g clip-path="url(#52da06d80c)"><g clip-rule="nonzero" clip-path="url(#6f3acdd248)"><g clip-rule="nonzero" clip-path="url(#84acb674ed)"><g clip-rule="nonzero" clip-path="url(#0dc36597c8)"><g clip-rule="nonzero" clip-path="url(#28f25efb53)"><path style=" stroke:none;fill-rule:evenodd;fill:#231f20;fill-opacity:1;" d="M 5.445312 35.90625 C 4.855469 35.277344 3.875 35.246094 3.246094 35.832031 C 2.617188 36.421875 2.585938 37.402344 3.175781 38.03125 C 6.832031 41.9375 10.0625 44.925781 13.5 47.3125 L 13.597656 47.375 C 17.023438 49.742188 20.628906 51.484375 25.019531 52.898438 C 53.167969 61.988281 90.328125 49.769531 126.550781 37.859375 C 176.910156 21.300781 225.433594 5.34375 243.179688 49.503906 C 243.496094 50.296875 244.402344 50.6875 245.203125 50.367188 C 246.003906 50.050781 246.390625 49.144531 246.066406 48.34375 C 227.234375 1.492188 177.359375 17.890625 125.589844 34.914062 C 89.832031 46.671875 53.160156 58.730469 25.960938 49.953125 C 21.871094 48.632812 18.523438 47.015625 15.359375 44.832031 L 15.269531 44.761719 C 12.050781 42.527344 8.96875 39.671875 5.449219 35.910156 Z M 5.445312 35.90625 "/></g></g></g></g></g></g></g></g><g transform="matrix(1,0,0,1,212,225)"><g clip-path="url(#685e143fa9)"><g style="fill:#231f20;fill-opacity:1;"><g transform="translate(1.406545, 12.121624)"><path style="stroke:none" d="M 0.40625 -9.3125 L 1.46875 -9.3125 L 3.921875 -1.53125 L 6.453125 -9.3125 L 7.390625 -9.3125 L 9.921875 -1.53125 L 12.375 -9.3125 L 13.453125 -9.3125 L 10.390625 0 L 9.390625 0 L 6.921875 -7.78125 L 4.453125 0 L 3.46875 0 Z M 0.40625 -9.3125 "/></g></g><g style="fill:#231f20;fill-opacity:1;"><g transform="translate(23.780791, 12.121624)"><path style="stroke:none" d="M 1.390625 -9.3125 L 5.125 -9.3125 C 5.539062 -9.3125 5.921875 -9.238281 6.265625 -9.09375 C 6.617188 -8.957031 6.921875 -8.765625 7.171875 -8.515625 C 7.429688 -8.265625 7.628906 -7.96875 7.765625 -7.625 C 7.910156 -7.289062 7.984375 -6.921875 7.984375 -6.515625 C 7.984375 -5.984375 7.878906 -5.546875 7.671875 -5.203125 C 7.472656 -4.867188 7.253906 -4.597656 7.015625 -4.390625 C 6.734375 -4.160156 6.414062 -3.984375 6.0625 -3.859375 L 8.25 0 L 7.125 0 L 5.0625 -3.734375 L 2.390625 -3.734375 L 2.390625 0 L 1.390625 0 Z M 5.125 -4.65625 C 5.695312 -4.65625 6.148438 -4.820312 6.484375 -5.15625 C 6.816406 -5.5 6.984375 -5.953125 6.984375 -6.515625 C 6.984375 -7.085938 6.816406 -7.539062 6.484375 -7.875 C 6.148438 -8.21875 5.695312 -8.390625 5.125 -8.390625 L 2.390625 -8.390625 L 2.390625 -4.65625 Z M 5.125 -4.65625 "/></g></g><g style="fill:#231f20;fill-opacity:1;"><g transform="translate(41.294693, 12.121624)"><path style="stroke:none" d="M 4.125 -9.3125 L 5.0625 -9.3125 L 8.921875 0 L 7.859375 0 L 6.796875 -2.59375 L 2.390625 -2.59375 L 1.328125 0 L 0.265625 0 Z M 6.390625 -3.53125 L 4.59375 -7.921875 L 2.796875 -3.53125 Z M 6.390625 -3.53125 "/></g></g><g style="fill:#231f20;fill-opacity:1;"><g transform="translate(59.008333, 12.121624)"><path style="stroke:none" d="M 3.734375 -3.265625 L 0.265625 -9.3125 L 1.390625 -9.3125 L 4.1875 -4.328125 L 4.265625 -4.328125 L 7.0625 -9.3125 L 8.1875 -9.3125 L 4.71875 -3.265625 L 4.71875 0 L 3.734375 0 Z M 3.734375 -3.265625 "/></g></g></g></g></g></svg>